<svg fill="none" height="50" viewBox="0 0 50 50" width="50" xmlns="http://www.w3.org/2000/svg" xmlns:xlink="http://www.w3.org/1999/xlink"><filter id="a" color-interpolation-filters="sRGB" filterUnits="userSpaceOnUse" height="29.8187" width="30.207" x="10.2561" y="12.1092"><feFlood flood-opacity="0" result="BackgroundImageFix"/><feColorMatrix in="SourceAlpha" result="hardAlpha" type="matrix" values="0 0 0 0 0 0 0 0 0 0 0 0 0 0 0 0 0 0 127 0"/><feOffset dy="2"/><feGaussianBlur stdDeviation="1.5"/><feComposite in2="hardAlpha" operator="out"/><feColorMatrix type="matrix" values="0 0 0 0 0.146944 0 0 0 0 0.160361 0 0 0 0 0.191667 0 0 0 1 0"/><feBlend in2="BackgroundImageFix" mode="normal" result="effect1_dropShadow_1_22"/><feBlend in="SourceGraphic" in2="effect1_dropShadow_1_22" mode="normal" result="shape"/></filter><linearGradient id="b" gradientUnits="userSpaceOnUse" x1="22.0015" x2="22.0015" y1="31.4615" y2="13"><stop offset="0" stop-color="#1370af"/><stop offset="1" stop-color="#3d84b3"/></linearGradient><linearGradient id="c" gradientUnits="userSpaceOnUse" x1="13.2323" x2="29.6169" y1="21.3077" y2="36.3077"><stop offset="0" stop-color="#3093d6"/><stop offset="1" stop-color="#0371bb"/></linearGradient><linearGradient id="d" gradientUnits="userSpaceOnUse" x1="33.54" x2="33.54" y1="13" y2="37"><stop offset="0" stop-color="#56b4f4"/><stop offset="1" stop-color="#209cf0"/></linearGradient><rect fill="#2b2e35" height="50" rx="10" width="50"/><g filter="url(#a)"><path d="m31.4631 19.3096v-4.868c0-.4538-.2564-.8688-.6624-1.0718-.4451-.2226-.9814-.147-1.3476.19l-15.7501 14.4945c-.6159.5668-.5919 1.5464.0511 2.0824l1.0271.8562c.3293.2745.8043.2861 1.1467.028z" fill="url(#b)"/><path d="m31.4631 30.6904v4.868c0 .4538-.2564.8688-.6624 1.0718-.4451.2226-.9814.147-1.3476-.19l-15.7501-14.4945c-.6159-.5668-.5919-1.5464.0511-2.0824l1.0271-.8562c.3293-.2745.8043-.2861 1.1467-.028z" fill="url(#c)"/><path d="m29.6169 13.4385.2752-.1794c.2494-.1626.562-.195.8394-.0868l6.1437 2.3947c.3545.1381.5879.4796.5879.86v17.3874c0 .3762-.2283.7148-.5771.8558l-4.2499 1.7181c-.6252.2528-1.2821.4187-1.9523.4932l-.3917.0435c-.3239.036-.5836-.2642-.5098-.5816 1.2928-5.5586 1.2002-15.8647 1.1819-22.0725-.0018-.6275-.6148-1.0712-1.2113-.8767z" fill="url(#d)"/></g></svg>