<svg fill="none" height="50" viewBox="0 0 50 50" width="50" xmlns="http://www.w3.org/2000/svg" xmlns:xlink="http://www.w3.org/1999/xlink"><filter id="a" color-interpolation-filters="sRGB" filterUnits="userSpaceOnUse" height="30" width="24" x="13" y="12"><feFlood flood-opacity="0" result="BackgroundImageFix"/><feColorMatrix in="SourceAlpha" result="hardAlpha" type="matrix" values="0 0 0 0 0 0 0 0 0 0 0 0 0 0 0 0 0 0 127 0"/><feOffset dy="2"/><feGaussianBlur stdDeviation="1.5"/><feComposite in2="hardAlpha" operator="out"/><feColorMatrix type="matrix" values="0 0 0 0 0.146944 0 0 0 0 0.160361 0 0 0 0 0.191667 0 0 0 1 0"/><feBlend in2="BackgroundImageFix" mode="normal" result="effect1_dropShadow_1_2"/><feBlend in="SourceGraphic" in2="effect1_dropShadow_1_2" mode="normal" result="shape"/></filter><rect fill="#2b2e35" height="50" rx="10" width="50"/><g filter="url(#a)"><circle cx="29" cy="25" fill="#1bbcfd" r="4"/><g clip-rule="evenodd" fill-rule="evenodd"><path d="m20 13h5v8h-5c-2.2091 0-4-1.7909-4-4s1.7909-4 4-4z" fill="#f24f1e"/><path d="m20 21h5v8h-5c-2.2091 0-4-1.7909-4-4s1.7909-4 4-4z" fill="#a259ff"/><path d="m20 29h5v3c0 2.7614-2.2386 5-5 5-2.2091 0-4-1.7909-4-4s1.7909-4 4-4z" fill="#0ace82"/><path d="m30 13h-5v8h5c2.2091 0 4-1.7909 4-4s-1.7909-4-4-4z" fill="#ff7261"/></g></g></svg>